<svg height="512" viewBox="0 0 64 64" width="512" xmlns="http://www.w3.org/2000/svg"><path d="m16.051 26.684 1.9.632c2.703-8.116 11.574-7.358 11.949-7.316l.2-1.99c-.111-.017-10.833-.974-14.049 8.674z"/><path d="m39 25h2v2h-2z"/><path d="m35 28h2v2h-2z"/><path d="m23 31h2v2h-2z"/><path d="m31 25h2v2h-2z"/><path d="m61 33h-15.931a11.557 11.557 0 0 0 1.1-2 4 4 0 0 0 0-7.994c-2.245-5.34-8.755-9.006-16.169-9.006-7.266 0-13.654 3.526-16.016 8.691a7 7 0 0 0 -6.984-6.691h-4a1 1 0 0 0 -1 1v4a7.007 7.007 0 0 0 4.6 6.566 6.986 6.986 0 0 0 -2.6 5.434v2a1 1 0 0 0 1 1h2a7 7 0 0 0 6.705-5.022c.044 0 .085.017.13.019 2.241 5.337 8.751 9 16.165 9a22.267 22.267 0 0 0 3.151-.248 15 15 0 0 0 28.849-5.749 1 1 0 0 0 -1-1zm-5.056 2a8.986 8.986 0 0 1 -3.152 5.886l-3.923-5.886zm-8.944.8 4.129 6.2a9.124 9.124 0 0 1 -8.258 0zm-5.792 5.083a8.981 8.981 0 0 1 -3.152-5.883h7.075zm-37.208-19.883v-3h3a5.006 5.006 0 0 1 5 5v.557a3.988 3.988 0 0 0 -.6.429l-3.693-3.693-1.414 1.414 3.952 3.953c-.039.111-.073.225-.1.34h-1.145a5.006 5.006 0 0 1 -5-5zm3 13h-1v-1a5 5 0 0 1 4.168-4.916 3.993 3.993 0 0 0 1.632 2.243 4.986 4.986 0 0 1 -4.8 3.673zm23 4c-6.9 0-12.882-3.442-14.546-8.371a1 1 0 0 0 -1.116-.666 1.976 1.976 0 0 1 -.338.037 2 2 0 0 1 0-4 1.976 1.976 0 0 1 .338.037 1 1 0 0 0 1.116-.666c1.664-4.929 7.646-8.371 14.546-8.371s12.882 3.442 14.546 8.371a1 1 0 0 0 1.116.666 1.976 1.976 0 0 1 .338-.037 2 2 0 0 1 0 4 1.976 1.976 0 0 1 -.338-.037 1 1 0 0 0 -1.116.666 9.785 9.785 0 0 1 -2.022 3.371h-9.524a1 1 0 0 0 -1 1 14.944 14.944 0 0 0 .513 3.825 20.138 20.138 0 0 1 -2.513.175zm17 9a13.017 13.017 0 0 1 -12.962-12h2.024a10.982 10.982 0 0 0 21.876 0h2.024a13.017 13.017 0 0 1 -12.962 12z"/></svg>