<?xml version="1.0" encoding="iso-8859-1"?>
<!-- Generator: Adobe Illustrator 19.0.0, SVG Export Plug-In . SVG Version: 6.00 Build 0)  -->
<svg version="1.1" id="Capa_1" xmlns="http://www.w3.org/2000/svg" xmlns:xlink="http://www.w3.org/1999/xlink" x="0px" y="0px"
	 viewBox="0 0 511.999 511.999" style="enable-background:new 0 0 511.999 511.999;" xml:space="preserve">
<g>
	<g>
		<path d="M239.496,424.903c-4.218-3.564-10.528-3.035-14.093,1.183c-3.565,4.219-3.035,10.528,1.183,14.093
			c0.13,0.109,0.26,0.216,0.391,0.322c1.846,1.486,4.056,2.208,6.251,2.208c2.922,0,5.818-1.278,7.796-3.734
			C244.488,434.674,243.797,428.367,239.496,424.903z"/>
	</g>
</g>
<g>
	<g>
		<path d="M326.445,411.435c-4.662-2.959-10.843-1.577-13.801,3.086c-1.465,2.308-3.623,3.907-6.244,4.626
			c-2.986,0.816-6.06,0.36-8.661-1.291c-4.664-2.958-10.844-1.576-13.801,3.088c-2.958,4.664-1.576,10.843,3.088,13.801
			c4.972,3.155,10.719,4.785,16.518,4.785c2.729,0,5.47-0.361,8.146-1.096c7.391-2.026,13.727-6.714,17.841-13.198
			C332.49,420.573,331.109,414.394,326.445,411.435z"/>
	</g>
</g>
<g>
	<g>
		<path d="M191.876,182.564l-0.084-0.63c-0.733-5.476-5.771-9.323-11.238-8.584c-5.475,0.732-9.317,5.765-8.584,11.238l0.074,0.562
			c0.657,5.038,4.956,8.708,9.903,8.708c0.431,0,0.867-0.027,1.306-0.085C188.73,193.059,192.591,188.04,191.876,182.564z"/>
	</g>
</g>
<g>
	<g>
		<path d="M163.519,82.552c-5.515-0.561-10.404,3.436-10.967,8.93c-0.563,5.495,3.436,10.404,8.93,10.967
			c5.856,0.599,10.14,5.852,9.552,11.674c-1.333,12.773-1.85,25.766-1.537,38.615c0.133,5.438,4.582,9.756,9.992,9.756
			c0.083,0,0.166-0.001,0.249-0.003c5.52-0.135,9.888-4.72,9.753-10.241c-0.292-11.996,0.19-24.126,1.438-36.086
			C192.625,99.351,180.329,84.272,163.519,82.552z"/>
	</g>
</g>
<g>
	<g>
		<path d="M423.619,434.855c-0.826-2.901-2.918-5.274-5.692-6.459l-43.639-18.629c0.308-23.773-11.335-47.175-32.846-60.818
			c-38.014-24.101-68.413-58.131-87.913-98.412c-19.6-40.485-27.488-85.52-22.812-130.255c2.683-26.206-9.394-50.569-29.467-64.848
			l9.22-43.354c0.628-2.951-0.11-6.028-2.01-8.373C206.562,1.362,203.707,0,200.689,0h-79.197c-3.101,0-6.025,1.438-7.919,3.893
			c-1.893,2.455-2.541,5.649-1.753,8.648l10.74,40.885c-17.646,11.216-30.2,30.082-32.488,52.437
			c-7.398,70.783,5.089,142.071,36.113,206.157c18.075,37.339,41.884,71.272,70.766,100.855c3.857,3.954,10.189,4.028,14.141,0.17
			c3.952-3.858,4.028-10.19,0.17-14.141c-27.373-28.038-49.939-60.202-67.074-95.599c-29.4-60.731-41.234-128.286-34.221-195.384
			c2.846-27.805,27.782-48.11,55.589-45.266c27.806,2.847,48.112,27.784,45.268,55.568c-5.062,48.421,3.481,97.187,24.704,141.028
			c21.124,43.635,54.045,80.492,95.204,106.587c23.654,15.004,30.692,46.454,15.69,70.107
			c-6.783,10.694-17.236,18.428-29.437,21.775c-13.781,3.783-28.606,1.564-40.674-6.088c-4.518-2.864-9.057-5.886-13.487-8.981
			c-4.526-3.162-10.762-2.058-13.925,2.47c-3.163,4.527-2.058,10.762,2.47,13.925c4.676,3.267,9.466,6.456,14.233,9.478
			c11.434,7.252,24.642,11.003,37.967,11.002c6.268,0,12.565-0.831,18.71-2.518c3.81-1.046,7.489-2.414,11.024-4.051l27.56,35.206
			c1.897,2.425,4.804,3.836,7.873,3.836c0.086,0,0.173-0.001,0.259-0.003c3.164-0.082,6.104-1.657,7.924-4.247l45.265-64.406
			C423.917,440.876,424.444,437.757,423.619,434.855z M182.8,46.05c-4.842-1.618-9.923-2.75-15.208-3.291
			c-9.192-0.941-18.152-0.048-26.537,2.349L134.459,20h53.88L182.8,46.05z M368.304,485.225l-18.163-23.203
			c5.054-4.425,9.501-9.578,13.169-15.362c3.35-5.281,5.901-10.843,7.706-16.542l27.705,11.827L368.304,485.225z"/>
	</g>
</g>
<g>
</g>
<g>
</g>
<g>
</g>
<g>
</g>
<g>
</g>
<g>
</g>
<g>
</g>
<g>
</g>
<g>
</g>
<g>
</g>
<g>
</g>
<g>
</g>
<g>
</g>
<g>
</g>
<g>
</g>
</svg>
