<svg height="512" viewBox="0 0 64 64" width="512" xmlns="http://www.w3.org/2000/svg"><path d="m28.792 22.2-1.2 1.6a8.266 8.266 0 0 0 4.73 1.524 7.326 7.326 0 0 0 4.478-1.524l-1.2-1.6a5.8 5.8 0 0 1 -6.808 0z"/><path d="m30.641 36.832a7.158 7.158 0 0 0 3.671 1.068 6.1 6.1 0 0 0 3.438-1.063l-1.109-1.664a4.609 4.609 0 0 1 -4.895 0z"/><path d="m29.746 47.165-1.105 1.667a7.158 7.158 0 0 0 3.671 1.068 6.1 6.1 0 0 0 3.438-1.063l-1.109-1.664a4.61 4.61 0 0 1 -4.895-.008z"/><path d="m26.216 35h2v2h-2z"/><path d="m32.216 53h2v2h-2z"/><path d="m17.116 12.427c.44 1.186 1.866 1.748 4.627 1.708a1.937 1.937 0 0 0 -.245 1.587c.425 1.278 2.135 1.278 2.702 1.278a9.781 9.781 0 0 0 6.5-2.1 10.092 10.092 0 0 1 .539 3.1c-2.81-.014-5.462.016-7.39 1.934-1.806 1.8-2.647 5-2.647 10.069 0 11.125 5.827 32 11 32s11-20.875 11-32c0-5.073-.841-8.272-2.646-10.069-1.721-1.708-3.996-1.92-6.456-1.934a14.408 14.408 0 0 1 3.39-2.959 2.534 2.534 0 0 1 1.81 1.406 3.724 3.724 0 0 0 2.59 2.256 3.372 3.372 0 0 0 2.249-.444c1.992 1.637 3.417 2.411 4.476 2.411a1.777 1.777 0 0 0 1.016-.3 2.012 2.012 0 0 0 .822-1.61 4.887 4.887 0 0 0 2.721.212 4.393 4.393 0 0 0 2.915-2.524 4.1 4.1 0 0 0 .221-3.765 3.927 3.927 0 0 0 -.776-1.065 2.753 2.753 0 0 0 .817-.736c1.329-1.8.039-4.7-.231-5.265a3.228 3.228 0 0 0 -1.816-1.992c-1.909-.792-4.291.35-4.5.457l-4.512 1.932a2.1 2.1 0 0 0 -.274-1.556c-.929-1.4-3.212-.958-5.1-.419a6.274 6.274 0 0 0 -4.439 3.541c-.93 2.281-.1 4.817.448 6.092a16.736 16.736 0 0 0 -2.867 2.472 11.579 11.579 0 0 0 -.551-2.115c-.1-.26-.21-.528-.337-.8 1.207-1.567 2.78-4.135 2.392-6.523a4.881 4.881 0 0 0 -2.921-3.6c-1.51-.755-3.368-1.48-4.336-.383a1.663 1.663 0 0 0 -.4.962c-1.99-1.3-4.686-2.237-7.267-.516a3.624 3.624 0 0 0 -1.763 2.684 4.651 4.651 0 0 0 .909 2.993c-.961.847-2.167 2.241-1.67 3.581zm20.217-4.1a4.413 4.413 0 0 1 3.137-2.366c1.976-.563 2.68-.437 2.866-.376a4.435 4.435 0 0 1 -.922 1.791 1 1 0 0 0 1.175 1.543l7.054-3.019a4.361 4.361 0 0 1 2.9-.423 1.234 1.234 0 0 1 .707.844 1.042 1.042 0 0 0 .053.13c.461.929.92 2.6.442 3.248-.3.41-1.151.525-2.382.32a1 1 0 0 0 -.363 1.961 3.974 3.974 0 0 1 2.521 1.585 2.213 2.213 0 0 1 -.216 1.988 2.475 2.475 0 0 1 -1.579 1.47 4.157 4.157 0 0 1 -2.926-.823 1 1 0 0 0 -1.549 1.114 4.145 4.145 0 0 1 .212 1.334c-.354-.079-1.358-.476-3.612-2.407a1 1 0 0 0 -1.332.028 1.876 1.876 0 0 1 -1.268.465c-.514-.092-.913-.693-1.156-1.181a4.539 4.539 0 0 0 -1.42-1.685 22.85 22.85 0 0 1 9.525-1.868v-2a24.065 24.065 0 0 0 -11.539 2.619 6.048 6.048 0 0 1 -.328-4.292zm3.772 19.2a5.872 5.872 0 0 1 -6.313-.327l-1.2 1.6a8.266 8.266 0 0 0 4.73 1.524 7.192 7.192 0 0 0 2.865-.592c0 .092.005.175.005.268a59.017 59.017 0 0 1 -1.514 12.229l-.04-.061a4.611 4.611 0 0 1 -4.895 0l-1.105 1.667a7.158 7.158 0 0 0 3.674 1.065 6.045 6.045 0 0 0 1.808-.285c-2.088 8.3-5.232 15.385-6.92 15.385-1.9 0-5.6-8.837-7.613-18.343a6.667 6.667 0 0 0 1.725.238 6.1 6.1 0 0 0 3.438-1.063l-1.109-1.664a4.48 4.48 0 0 1 -4.5.212 58.289 58.289 0 0 1 -.9-7.532 6.014 6.014 0 0 0 2.343.482 6.948 6.948 0 0 0 4.216-1.53l-1.2-1.6c-2.627 1.971-4.635.906-5.391.344.047-4.174.714-6.867 2.048-8.195 1.243-1.244 3.174-1.349 5.426-1.349h.732.78.781c2.565-.018 4.779-.025 6.163 1.351 1.104 1.097 1.748 3.14 1.966 6.174zm-20.328-17.714a1 1 0 0 0 .125-1.52 3.449 3.449 0 0 1 -1.033-2.245 1.707 1.707 0 0 1 .881-1.216c3.361-2.241 7.637 2.761 7.68 2.812a1 1 0 0 0 1.6-1.2 8.825 8.825 0 0 1 -1.105-2.26 7.435 7.435 0 0 1 1.825.709 2.96 2.96 0 0 1 1.841 2.131c.224 1.37-.632 3.055-1.552 4.379a9.543 9.543 0 0 0 -6.731-3.4l-.221 1.988a7.525 7.525 0 0 1 5.658 3.032c-.092.1-.179.191-.255.267l-.015.016c-.07.072-1.694 1.694-5.275 1.694a4.629 4.629 0 0 1 -.607-.035 6.843 6.843 0 0 1 1.207-1.165 1 1 0 0 0 .332-1.158 1.013 1.013 0 0 0 -1.027-.642c-1.035.094-1.863.13-2.527.13-2.181 0-2.592-.4-2.578-.363 0-.343.884-1.313 1.777-1.954z"/></svg>